<?xml version="1.0" encoding="iso-8859-1"?>
<!-- Generator: Adobe Illustrator 16.0.0, SVG Export Plug-In . SVG Version: 6.00 Build 0)  -->
<!DOCTYPE svg PUBLIC "-//W3C//DTD SVG 1.1//EN" "http://www.w3.org/Graphics/SVG/1.1/DTD/svg11.dtd">
<svg version="1.1" id="Capa_1" xmlns="http://www.w3.org/2000/svg" xmlns:xlink="http://www.w3.org/1999/xlink" x="0px" y="0px"
	 width="574.999px" height="574.999px" viewBox="0 0 574.999 574.999" style="enable-background:new 0 0 574.999 574.999;"
	 xml:space="preserve">
<g>
	<path d="M324.861,116.53V13.189h7.039V0h-88.803v13.189h7.917v102.96c-27.795,14.431-61.108,41.538-61.108,88.7
		c0,80.889,0,370.15,0,370.15h195.185c0,0,0-317.388,0-372.78C385.092,157.536,352.334,130.979,324.861,116.53z M272.113,201.775
		c5.822,0,10.551,4.729,10.551,10.551c0,5.828-4.729,10.551-10.551,10.551c-5.828,0-10.55-4.723-10.55-10.551
		C261.563,206.504,266.286,201.775,272.113,201.775z M249.694,309.919c-8.739,0-15.826-7.087-15.826-15.829
		s7.087-15.826,15.826-15.826c8.733,0,15.823,7.084,15.823,15.826S258.427,309.919,249.694,309.919z M282.664,403.552
		c-10.205,0-18.468-8.264-18.468-18.46s8.263-18.465,18.468-18.465c10.196,0,18.459,8.269,18.459,18.465
		S292.86,403.552,282.664,403.552z M334.094,475.651c-10.202,0-18.465-8.27-18.465-18.46c0-10.196,8.263-18.471,18.465-18.471
		s18.465,8.274,18.465,18.471C352.559,467.382,344.296,475.651,334.094,475.651z M254.966,495.872
		c-10.199,0-18.465-8.27-18.465-18.466s8.267-18.459,18.465-18.459c10.199,0,18.465,8.263,18.465,18.459
		S265.166,495.872,254.966,495.872z M343.326,356.076c-15.297,0-27.686-12.396-27.686-27.698c0-15.297,12.389-27.697,27.686-27.697
		s27.698,12.4,27.698,27.697C371.024,343.681,358.623,356.076,343.326,356.076z"/>
</g>
<g>
</g>
<g>
</g>
<g>
</g>
<g>
</g>
<g>
</g>
<g>
</g>
<g>
</g>
<g>
</g>
<g>
</g>
<g>
</g>
<g>
</g>
<g>
</g>
<g>
</g>
<g>
</g>
<g>
</g>
</svg>
